<svg width="211" height="179" viewBox="0 0 211 179" fill="none" xmlns="http://www.w3.org/2000/svg">
<circle cx="67" cy="91" r="48" stroke="#E57C1A" stroke-width="4"/>
<path fill-rule="evenodd" clip-rule="evenodd" d="M120.609 98C117.402 124.482 94.847 145 67.5 145C37.9528 145 14 121.047 14 91.5C14 61.9528 37.9528 38 67.5 38C96.5456 38 120.185 61.1463 120.979 90H134.984C134.186 53.4135 104.278 24 67.5 24C30.2208 24 0 54.2208 0 91.5C0 128.779 30.2208 159 67.5 159C102.587 159 131.421 132.23 134.691 98H120.609Z" fill="#E57C1A"/>
<mask id="path-3-inside-1_9_24" fill="white">
<path fill-rule="evenodd" clip-rule="evenodd" d="M146 98V141C146 143.209 144.209 145 142 145C139.791 145 138 143.209 138 141V98H124V141C124 150.941 132.059 159 142 159C151.941 159 160 150.941 160 141V98H146ZM146 90H160V42C160 32.0589 151.941 24 142 24C132.059 24 124 32.0589 124 42V90H138V42C138 39.7909 139.791 38 142 38C144.209 38 146 39.7909 146 42V90Z"/>
</mask>
<path fill-rule="evenodd" clip-rule="evenodd" d="M146 98V141C146 143.209 144.209 145 142 145C139.791 145 138 143.209 138 141V98H124V141C124 150.941 132.059 159 142 159C151.941 159 160 150.941 160 141V98H146ZM146 90H160V42C160 32.0589 151.941 24 142 24C132.059 24 124 32.0589 124 42V90H138V42C138 39.7909 139.791 38 142 38C144.209 38 146 39.7909 146 42V90Z" fill="#E57C1A"/>
<path d="M146 98V97H145V98H146ZM138 98H139V97H138V98ZM124 98V97H123V98H124ZM160 98H161V97H160V98ZM146 90H145V91H146V90ZM160 90V91H161V90H160ZM124 90H123V91H124V90ZM138 90V91H139V90H138ZM147 141V98H145V141H147ZM142 146C144.761 146 147 143.761 147 141H145C145 142.657 143.657 144 142 144V146ZM137 141C137 143.761 139.239 146 142 146V144C140.343 144 139 142.657 139 141H137ZM137 98V141H139V98H137ZM138 97H124V99H138V97ZM123 98V141H125V98H123ZM123 141C123 151.493 131.507 160 142 160V158C132.611 158 125 150.389 125 141H123ZM142 160C152.493 160 161 151.493 161 141H159C159 150.389 151.389 158 142 158V160ZM161 141V98H159V141H161ZM160 97H146V99H160V97ZM146 91H160V89H146V91ZM161 90V42H159V90H161ZM161 42C161 31.5066 152.493 23 142 23V25C151.389 25 159 32.6112 159 42H161ZM142 23C131.507 23 123 31.5066 123 42H125C125 32.6112 132.611 25 142 25V23ZM123 42V90H125V42H123ZM124 91H138V89H124V91ZM137 42V90H139V42H137ZM142 37C139.239 37 137 39.2386 137 42H139C139 40.3431 140.343 39 142 39V37ZM147 42C147 39.2386 144.761 37 142 37V39C143.657 39 145 40.3431 145 42H147ZM147 90V42H145V90H147Z" fill="#E57C1A" mask="url(#path-3-inside-1_9_24)"/>
<path fill-rule="evenodd" clip-rule="evenodd" d="M190 42V141C190 143.209 188.209 145 186 145C183.791 145 182 143.209 182 141V98H168V141C168 150.941 176.059 159 186 159C195.941 159 204 150.941 204 141V42C204 32.0589 195.941 24 186 24C176.059 24 168 32.0589 168 42V90H182V42C182 39.7909 183.791 38 186 38C188.209 38 190 39.7909 190 42Z" fill="#E57C1A"/>
<line x1="159.5" y1="89" x2="159.5" y2="88" stroke="#E57C1A"/>
<line x1="160" y1="83" x2="168" y2="83" stroke="#E57C1A" stroke-width="14"/>
<line x1="160" y1="105" x2="168" y2="105" stroke="#E57C1A" stroke-width="14"/>
<circle cx="67" cy="73" r="17" fill="#E67C1A"/>
<path d="M67.5 66L88.7176 123H46.2824L67.5 66Z" fill="#E57C1A"/>
<path d="M12.5 11.64C12.5 10.48 12.28 9.62 11.84 9.06C11.4 8.48667 10.7867 8.2 10 8.2C9.22667 8.2 8.61333 8.48667 8.16 9.06C7.72 9.62 7.5 10.48 7.5 11.64C7.5 12.8 7.72 13.6667 8.16 14.24C8.6 14.8 9.21333 15.08 10 15.08C10.7867 15.08 11.4 14.8 11.84 14.24C12.28 13.6667 12.5 12.8 12.5 11.64ZM14.76 11.64C14.76 12.5467 14.64 13.34 14.4 14.02C14.16 14.7 13.8267 15.2733 13.4 15.74C12.9867 16.2067 12.4867 16.5533 11.9 16.78C11.3267 17.02 10.6933 17.14 10 17.14C9.30667 17.14 8.66667 17.02 8.08 16.78C7.50667 16.5533 7.00667 16.2067 6.58 15.74C6.16667 15.2733 5.84 14.7 5.6 14.02C5.36 13.34 5.24 12.5467 5.24 11.64C5.24 10.7467 5.36 9.96 5.6 9.28C5.84 8.58667 6.16667 8.00667 6.58 7.54C7.00667 7.07333 7.50667 6.72667 8.08 6.5C8.66667 6.26 9.30667 6.14 10 6.14C10.6933 6.14 11.3267 6.26 11.9 6.5C12.4867 6.72667 12.9867 7.07333 13.4 7.54C13.8267 8.00667 14.16 8.58667 14.4 9.28C14.64 9.96 14.76 10.7467 14.76 11.64ZM41.86 16.84H39.68V8.48H34.72V16.84H32.54V6.44H41.86V16.84ZM66.64 10.36H66.66C66.58 9.72 66.3667 9.19333 66.02 8.78C65.6867 8.36667 65.1533 8.16 64.42 8.16C63.7267 8.16 63.2067 8.36667 62.86 8.78C62.5267 9.19333 62.3 9.72 62.18 10.36H66.64ZM68.88 11.64V12.36H62.12C62.1467 13.2133 62.3533 13.8867 62.74 14.38C63.14 14.8733 63.7 15.12 64.42 15.12C65.18 15.12 65.7333 14.98 66.08 14.7C66.4267 14.4067 66.6533 13.9667 66.76 13.38H68.88C68.6533 14.6067 68.18 15.54 67.46 16.18C66.74 16.82 65.7333 17.14 64.44 17.14C63.8133 17.14 63.22 17.0267 62.66 16.8C62.1133 16.5733 61.6333 16.2333 61.22 15.78C60.8067 15.3133 60.48 14.74 60.24 14.06C60.0133 13.3667 59.9 12.56 59.9 11.64C59.9 10.76 60.0067 9.98 60.22 9.3C60.4467 8.62 60.76 8.04667 61.16 7.58C61.56 7.11333 62.0333 6.76 62.58 6.52C63.14 6.26667 63.7467 6.14 64.4 6.14C65.1333 6.14 65.78 6.27333 66.34 6.54C66.9 6.80667 67.3667 7.18667 67.74 7.68C68.1267 8.16 68.4133 8.74 68.6 9.42C68.8 10.0867 68.9 10.8267 68.9 11.64H68.88ZM94.02 11.64C94.02 10.6 93.8267 9.76667 93.44 9.14C93.0667 8.51333 92.4533 8.2 91.6 8.2C90.7467 8.2 90.1267 8.51333 89.74 9.14C89.3667 9.75333 89.18 10.5867 89.18 11.64C89.18 12.6933 89.3667 13.5333 89.74 14.16C90.1267 14.7733 90.7467 15.08 91.6 15.08C92.4533 15.08 93.0667 14.7733 93.44 14.16C93.8267 13.5333 94.02 12.6933 94.02 11.64ZM96.26 11.64C96.26 12.52 96.14 13.3067 95.9 14C95.6733 14.68 95.36 15.2533 94.96 15.72C94.56 16.1733 94.08 16.52 93.52 16.76C92.9733 17 92.38 17.12 91.74 17.12C91.22 17.12 90.7333 17.0333 90.28 16.86C89.8267 16.6867 89.46 16.4267 89.18 16.08V19.98H86.94V6.44H89.18V7.14C89.46 6.84667 89.8 6.60667 90.2 6.42C90.6133 6.23333 91.1267 6.14 91.74 6.14C92.4333 6.14 93.0533 6.25333 93.6 6.48C94.16 6.69333 94.6333 7.02667 95.02 7.48C95.42 7.93333 95.7267 8.50667 95.94 9.2C96.1533 9.89333 96.26 10.7067 96.26 11.64ZM120.18 11.86C120.073 11.9533 119.947 12.0333 119.8 12.1C119.667 12.1533 119.567 12.1867 119.5 12.2C118.86 12.3467 118.333 12.4867 117.92 12.62C117.52 12.74 117.207 12.8733 116.98 13.02C116.753 13.1533 116.6 13.3 116.52 13.46C116.44 13.62 116.4 13.8 116.4 14C116.4 14.3733 116.513 14.66 116.74 14.86C116.98 15.0467 117.3 15.14 117.7 15.14C118.567 15.14 119.187 14.96 119.56 14.6C119.947 14.24 120.147 13.7733 120.16 13.2L120.18 11.86ZM123.44 16.68C123.133 16.7467 122.893 16.7867 122.72 16.8C122.547 16.8267 122.367 16.84 122.18 16.84C121.793 16.84 121.473 16.7667 121.22 16.62C120.98 16.4733 120.773 16.2533 120.6 15.96C120.347 16.32 119.973 16.6067 119.48 16.82C118.987 17.0333 118.353 17.14 117.58 17.14C116.567 17.14 115.74 16.88 115.1 16.36C114.46 15.8533 114.14 15.0667 114.14 14C114.14 13.4933 114.233 13.0533 114.42 12.68C114.607 12.2933 114.893 11.96 115.28 11.68C115.68 11.3867 116.187 11.14 116.8 10.94C117.413 10.7267 118.147 10.54 119 10.38C119.28 10.3267 119.547 10.22 119.8 10.06C120.053 9.9 120.18 9.66667 120.18 9.36C120.18 8.92 120.047 8.60667 119.78 8.42C119.513 8.22 119.12 8.12 118.6 8.12C118.04 8.12 117.593 8.24667 117.26 8.5C116.94 8.74 116.78 9.13333 116.78 9.68H114.54C114.54 9.06667 114.64 8.54 114.84 8.1C115.053 7.66 115.34 7.29333 115.7 7C116.073 6.70667 116.507 6.49333 117 6.36C117.507 6.21333 118.06 6.14 118.66 6.14C119.193 6.14 119.687 6.19333 120.14 6.3C120.593 6.40667 120.987 6.59333 121.32 6.86C121.653 7.11333 121.913 7.46 122.1 7.9C122.287 8.32667 122.38 8.86 122.38 9.5V14.5C122.38 14.7133 122.473 14.8333 122.66 14.86C122.873 14.8733 123.133 14.8267 123.44 14.72V16.68ZM150.86 8.48H147.08V16.84H144.88V8.48H141.12V6.44H150.86V8.48ZM175.7 11.64C175.7 10.48 175.48 9.62 175.04 9.06C174.6 8.48667 173.987 8.2 173.2 8.2C172.427 8.2 171.813 8.48667 171.36 9.06C170.92 9.62 170.7 10.48 170.7 11.64C170.7 12.8 170.92 13.6667 171.36 14.24C171.8 14.8 172.413 15.08 173.2 15.08C173.987 15.08 174.6 14.8 175.04 14.24C175.48 13.6667 175.7 12.8 175.7 11.64ZM177.96 11.64C177.96 12.5467 177.84 13.34 177.6 14.02C177.36 14.7 177.027 15.2733 176.6 15.74C176.187 16.2067 175.687 16.5533 175.1 16.78C174.527 17.02 173.893 17.14 173.2 17.14C172.507 17.14 171.867 17.02 171.28 16.78C170.707 16.5533 170.207 16.2067 169.78 15.74C169.367 15.2733 169.04 14.7 168.8 14.02C168.56 13.34 168.44 12.5467 168.44 11.64C168.44 10.7467 168.56 9.96 168.8 9.28C169.04 8.58667 169.367 8.00667 169.78 7.54C170.207 7.07333 170.707 6.72667 171.28 6.5C171.867 6.26 172.507 6.14 173.2 6.14C173.893 6.14 174.527 6.26 175.1 6.5C175.687 6.72667 176.187 7.07333 176.6 7.54C177.027 8.00667 177.36 8.58667 177.6 9.28C177.84 9.96 177.96 10.7467 177.96 11.64ZM202.82 11.64C202.82 10.6 202.627 9.76667 202.24 9.14C201.867 8.51333 201.253 8.2 200.4 8.2C199.547 8.2 198.927 8.51333 198.54 9.14C198.167 9.75333 197.98 10.5867 197.98 11.64C197.98 12.6933 198.167 13.5333 198.54 14.16C198.927 14.7733 199.547 15.08 200.4 15.08C201.253 15.08 201.867 14.7733 202.24 14.16C202.627 13.5333 202.82 12.6933 202.82 11.64ZM205.06 11.64C205.06 12.52 204.94 13.3067 204.7 14C204.473 14.68 204.16 15.2533 203.76 15.72C203.36 16.1733 202.88 16.52 202.32 16.76C201.773 17 201.18 17.12 200.54 17.12C200.02 17.12 199.533 17.0333 199.08 16.86C198.627 16.6867 198.26 16.4267 197.98 16.08V19.98H195.74V6.44H197.98V7.14C198.26 6.84667 198.6 6.60667 199 6.42C199.413 6.23333 199.927 6.14 200.54 6.14C201.233 6.14 201.853 6.25333 202.4 6.48C202.96 6.69333 203.433 7.02667 203.82 7.48C204.22 7.93333 204.527 8.50667 204.74 9.2C204.953 9.89333 205.06 10.7067 205.06 11.64Z" fill="black"/>
<path d="M14.8 175.84H12.62V171.52H7.36V175.84H5.18V165.44H7.36V169.48H12.62V165.44H14.8V175.84ZM29.44 169.36H29.46C29.38 168.72 29.1667 168.193 28.82 167.78C28.4867 167.367 27.9533 167.16 27.22 167.16C26.5267 167.16 26.0067 167.367 25.66 167.78C25.3267 168.193 25.1 168.72 24.98 169.36H29.44ZM31.68 170.64V171.36H24.92C24.9467 172.213 25.1533 172.887 25.54 173.38C25.94 173.873 26.5 174.12 27.22 174.12C27.98 174.12 28.5333 173.98 28.88 173.7C29.2267 173.407 29.4533 172.967 29.56 172.38H31.68C31.4533 173.607 30.98 174.54 30.26 175.18C29.54 175.82 28.5333 176.14 27.24 176.14C26.6133 176.14 26.02 176.027 25.46 175.8C24.9133 175.573 24.4333 175.233 24.02 174.78C23.6067 174.313 23.28 173.74 23.04 173.06C22.8133 172.367 22.7 171.56 22.7 170.64C22.7 169.76 22.8067 168.98 23.02 168.3C23.2467 167.62 23.56 167.047 23.96 166.58C24.36 166.113 24.8333 165.76 25.38 165.52C25.94 165.267 26.5467 165.14 27.2 165.14C27.9333 165.14 28.58 165.273 29.14 165.54C29.7 165.807 30.1667 166.187 30.54 166.68C30.9267 167.16 31.2133 167.74 31.4 168.42C31.6 169.087 31.7 169.827 31.7 170.64H31.68ZM47.04 173.72L47.06 167.52H43.14V167.68C43.14 168.413 43.12 169.073 43.08 169.66C43.0533 170.233 42.9867 170.76 42.88 171.24C42.7867 171.707 42.6533 172.147 42.48 172.56C42.3067 172.96 42.08 173.347 41.8 173.72H47.04ZM51.18 178.4H49.34C49.1667 177.56 48.98 176.913 48.78 176.46C48.5933 176.02 48.28 175.8 47.84 175.8H41.52C41.16 175.8 40.8667 175.847 40.64 175.94C40.4133 176.047 40.2267 176.207 40.08 176.42C39.9333 176.633 39.8133 176.9 39.72 177.22C39.6267 177.553 39.52 177.947 39.4 178.4H37.62L38.08 174.58C38.7067 174.273 39.2133 173.907 39.6 173.48C40 173.053 40.3067 172.553 40.52 171.98C40.7333 171.407 40.8733 170.76 40.94 170.04C41.02 169.307 41.06 168.493 41.06 167.6V165.44H49.26V173.84C49.26 174.147 49.3667 174.387 49.58 174.56C49.8067 174.72 50.1933 174.8 50.74 174.8L51.18 178.4ZM64.18 172.58C64.18 172.127 64.0133 171.807 63.68 171.62C63.3467 171.433 62.7533 171.34 61.9 171.34H59V173.86H61.88C62.7333 173.86 63.3267 173.76 63.66 173.56C64.0067 173.36 64.18 173.033 64.18 172.58ZM63.66 168.4C63.66 168.053 63.5333 167.807 63.28 167.66C63.04 167.5 62.58 167.42 61.9 167.42H59V169.34H61.88C62.24 169.34 62.5333 169.327 62.76 169.3C63 169.26 63.18 169.207 63.3 169.14C63.4333 169.06 63.52 168.96 63.56 168.84C63.6133 168.72 63.64 168.573 63.64 168.4H63.66ZM66.4 172.58C66.4 173.087 66.3267 173.54 66.18 173.94C66.0333 174.34 65.7867 174.68 65.44 174.96C65.0933 175.24 64.6333 175.453 64.06 175.6C63.4867 175.76 62.7667 175.84 61.9 175.84H56.78V165.44H61.88C62.64 165.44 63.2733 165.507 63.78 165.64C64.3 165.773 64.7133 165.96 65.02 166.2C65.34 166.44 65.56 166.733 65.68 167.08C65.8133 167.427 65.88 167.807 65.88 168.22C65.88 169.1 65.5733 169.753 64.96 170.18C65.4267 170.38 65.78 170.687 66.02 171.1C66.2733 171.513 66.4 172.007 66.4 172.58ZM83.22 175.84H81.04V169.48L76.54 174.76V175.84H74.36V165.44H76.54V171.8L81.04 166.52V165.44H83.22V175.84ZM102.4 176.14C101.827 176.14 101.293 176.04 100.8 175.84C100.32 175.64 99.8933 175.347 99.52 174.96C99.1467 174.56 98.84 174.067 98.6 173.48C98.36 172.893 98.2133 172.213 98.16 171.44H97.02V175.84H95.02V171.44H93.88C93.8133 172.213 93.66 172.893 93.42 173.48C93.1933 174.067 92.8933 174.56 92.52 174.96C92.1467 175.347 91.7067 175.64 91.2 175.84C90.7067 176.04 90.1733 176.14 89.6 176.14V174.08C90.32 174.08 90.88 173.8 91.28 173.24C91.68 172.667 91.88 171.8 91.88 170.64C91.88 169.48 91.68 168.62 91.28 168.06C90.88 167.487 90.32 167.2 89.6 167.2V165.14C90.72 165.14 91.6667 165.513 92.44 166.26C93.2133 167.007 93.68 168.107 93.84 169.56H95V165.44H97V169.56H98.16C98.32 168.107 98.7867 167.007 99.56 166.26C100.333 165.513 101.28 165.14 102.4 165.14V167.2C101.693 167.2 101.14 167.487 100.74 168.06C100.34 168.62 100.14 169.48 100.14 170.64C100.14 171.8 100.333 172.667 100.72 173.24C101.12 173.8 101.68 174.08 102.4 174.08V176.14ZM117.62 175.84H115.44V169.48L110.94 174.76V175.84H108.76V165.44H110.94V171.8L115.44 166.52V165.44H117.62V175.84ZM136.72 175.84H134.5V169.58L131.28 175.84H129.52L126.3 169.58V175.84H124.08V165.44H126.54L130.4 172.88L134.26 165.44H136.72V175.84ZM150.1 170.64C150.1 169.48 149.88 168.62 149.44 168.06C149 167.487 148.387 167.2 147.6 167.2C146.827 167.2 146.213 167.487 145.76 168.06C145.32 168.62 145.1 169.48 145.1 170.64C145.1 171.8 145.32 172.667 145.76 173.24C146.2 173.8 146.813 174.08 147.6 174.08C148.387 174.08 149 173.8 149.44 173.24C149.88 172.667 150.1 171.8 150.1 170.64ZM152.36 170.64C152.36 171.547 152.24 172.34 152 173.02C151.76 173.7 151.427 174.273 151 174.74C150.587 175.207 150.087 175.553 149.5 175.78C148.927 176.02 148.293 176.14 147.6 176.14C146.907 176.14 146.267 176.02 145.68 175.78C145.107 175.553 144.607 175.207 144.18 174.74C143.767 174.273 143.44 173.7 143.2 173.02C142.96 172.34 142.84 171.547 142.84 170.64C142.84 169.747 142.96 168.96 143.2 168.28C143.44 167.587 143.767 167.007 144.18 166.54C144.607 166.073 145.107 165.727 145.68 165.5C146.267 165.26 146.907 165.14 147.6 165.14C148.293 165.14 148.927 165.26 149.5 165.5C150.087 165.727 150.587 166.073 151 166.54C151.427 167.007 151.76 167.587 152 168.28C152.24 168.96 152.36 169.747 152.36 170.64ZM169.32 172.26C169.24 172.94 169.073 173.527 168.82 174.02C168.567 174.5 168.247 174.9 167.86 175.22C167.487 175.54 167.047 175.773 166.54 175.92C166.047 176.067 165.513 176.14 164.94 176.14C164.273 176.14 163.653 176.02 163.08 175.78C162.52 175.553 162.027 175.207 161.6 174.74C161.187 174.273 160.86 173.7 160.62 173.02C160.38 172.34 160.26 171.547 160.26 170.64C160.26 169.787 160.367 169.02 160.58 168.34C160.807 167.66 161.12 167.087 161.52 166.62C161.92 166.14 162.407 165.773 162.98 165.52C163.553 165.267 164.193 165.14 164.9 165.14C165.447 165.14 165.96 165.213 166.44 165.36C166.933 165.507 167.367 165.733 167.74 166.04C168.127 166.347 168.447 166.733 168.7 167.2C168.953 167.667 169.12 168.213 169.2 168.84H167C166.933 168.293 166.727 167.88 166.38 167.6C166.047 167.307 165.56 167.16 164.92 167.16C164.133 167.16 163.533 167.487 163.12 168.14C162.707 168.78 162.5 169.613 162.5 170.64C162.5 171.773 162.713 172.64 163.14 173.24C163.567 173.827 164.16 174.12 164.92 174.12C165.56 174.12 166.053 173.98 166.4 173.7C166.76 173.42 166.98 172.94 167.06 172.26H169.32ZM186.86 167.48H183.08V175.84H180.88V167.48H177.12V165.44H186.86V167.48ZM203.62 175.84H201.44V169.48L196.94 174.76V175.84H194.76V165.44H196.94V171.8L201.44 166.52V165.44H203.62V175.84Z" fill="black"/>
</svg>
